<svg width="1000" height="1000" viewBox="0 0 1000 1000" fill="none" xmlns="http://www.w3.org/2000/svg">
<rect width="1000" height="1000" rx="166" fill="white"/>
<path fill-rule="evenodd" clip-rule="evenodd" d="M814.293 166.703C814.755 165.605 815.776 164.744 816.965 164.662C828.963 163.837 856 163.742 856 164.61C856 167.911 822.383 230.604 804.924 259.864C781.377 299.322 763.148 323.251 733.345 353.819C718.325 369.224 706.343 382.09 706.717 382.407C707.092 382.727 717.964 390.022 730.878 398.618C743.792 407.216 754.735 414.859 755.196 415.604C757.761 419.752 733.613 469.435 716.186 495.862C658.659 583.102 579.07 636.937 487.5 650.544C433.39 658.586 396.701 679.542 366.352 719.743C348.942 742.8 329.693 787.205 322.398 821.126C320.657 829.22 313.502 835 305.223 835H286.208C282.198 835 279.21 831.301 280.053 827.38L281.398 821.126C288.693 787.205 307.942 742.8 325.352 719.743C355.701 679.542 392.39 658.586 446.5 650.544C538.07 636.937 617.659 583.102 675.186 495.862C692.613 469.435 716.761 419.752 714.196 415.604C713.735 414.859 702.792 407.216 689.878 398.618C676.965 390.022 666.092 382.727 665.717 382.407C665.343 382.09 677.325 369.224 692.345 353.819C722.148 323.251 740.377 299.322 763.924 259.864C779.889 233.108 809.365 178.395 814.293 166.703Z" fill="url(#paint0_radial_8_76)" fill-opacity="0.1"/>
<g filter="url(#filter0_i_8_76)">
<path fill-rule="evenodd" clip-rule="evenodd" d="M705.769 164.838C702.462 165.149 690.093 166.216 678.282 167.212C595.614 174.179 510.397 200.773 446.917 239.412C301.84 327.716 210.333 484.184 162.178 726.299C152.75 773.703 144 823.727 144 830.234C144 832.866 146.134 835 148.766 835H177.208H196.223C204.502 835 211.657 829.22 213.398 821.126C220.693 787.205 239.942 742.8 257.352 719.743C287.701 679.542 324.39 658.586 378.5 650.544C470.07 636.937 549.659 583.102 607.186 495.862C624.613 469.435 648.761 419.752 646.196 415.604C645.735 414.859 634.792 407.216 621.878 398.618C608.965 390.022 598.092 382.727 597.717 382.407C597.343 382.09 609.325 369.224 624.345 353.819C654.148 323.251 672.377 299.322 695.924 259.864C713.383 230.604 747 167.911 747 164.609C747 163.684 716.22 163.854 705.769 164.838Z" fill="url(#paint1_radial_8_76)"/>
</g>
<path fill-rule="evenodd" clip-rule="evenodd" d="M773.769 164.838C770.462 165.149 758.093 166.216 746.282 167.212C663.614 174.179 578.397 200.773 514.917 239.411C369.84 327.716 278.333 484.184 230.178 726.299C220.75 773.703 212 823.727 212 830.234C212 832.866 214.134 835 216.766 835H245.208H257.414H274C276.575 835 278.801 833.202 279.342 830.685L281.398 821.126C288.693 787.205 307.942 742.8 325.352 719.743C355.701 679.542 392.39 658.586 446.5 650.544C538.07 636.937 617.659 583.102 675.186 495.862C692.613 469.435 716.761 419.752 714.196 415.604C713.735 414.859 702.792 407.216 689.878 398.618C676.965 390.022 666.092 382.727 665.717 382.407C665.343 382.09 677.325 369.224 692.345 353.819C722.148 323.251 740.377 299.322 763.924 259.864C779.889 233.108 809.365 178.395 814.293 166.703C814.666 165.819 814.898 165.18 814.973 164.819C814.991 164.733 815 164.664 815 164.609C815 163.684 784.219 163.854 773.769 164.838Z" fill="url(#paint2_linear_8_76)" fill-opacity="0.3"/>
<defs>
<filter id="filter0_i_8_76" x="144" y="164" width="603" height="671" filterUnits="userSpaceOnUse" color-interpolation-filters="sRGB">
<feFlood flood-opacity="0" result="BackgroundImageFix"/>
<feBlend mode="normal" in="SourceGraphic" in2="BackgroundImageFix" result="shape"/>
<feColorMatrix in="SourceAlpha" type="matrix" values="0 0 0 0 0 0 0 0 0 0 0 0 0 0 0 0 0 0 127 0" result="hardAlpha"/>
<feOffset/>
<feGaussianBlur stdDeviation="2.55"/>
<feComposite in2="hardAlpha" operator="arithmetic" k2="-1" k3="1"/>
<feColorMatrix type="matrix" values="0 0 0 0 0 0 0 0 0 0 0 0 0 0 0 0 0 0 0.25 0"/>
<feBlend mode="normal" in2="shape" result="effect1_innerShadow_8_76"/>
</filter>
<radialGradient id="paint0_radial_8_76" cx="0" cy="0" r="1" gradientUnits="userSpaceOnUse" gradientTransform="translate(364 713.5) rotate(-62.3589) scale(500.073 449.395)">
<stop stop-color="#FA5D38"/>
<stop offset="1" stop-color="#DA2C43"/>
</radialGradient>
<radialGradient id="paint1_radial_8_76" cx="0" cy="0" r="1" gradientUnits="userSpaceOnUse" gradientTransform="translate(255 713.5) rotate(-62.3589) scale(500.073 449.395)">
<stop stop-color="#DA2C43"/>
<stop offset="1" stop-color="#FA5D38"/>
</radialGradient>
<linearGradient id="paint2_linear_8_76" x1="91" y1="1156.5" x2="555" y2="270.5" gradientUnits="userSpaceOnUse">
<stop stop-color="#FA5D38"/>
<stop offset="1" stop-color="#DA2C43"/>
</linearGradient>
</defs>
</svg>
